<svg width="232" height="232" viewBox="0 0 232 232" fill="none" xmlns="http://www.w3.org/2000/svg">
<path d="M164 116.008L189.535 107.663L198 82L206.465 107.663L232 116.008L206.465 124.337L198 150L189.535 124.337L164 116.008Z" fill="#1C2C68"/>
<path d="M82 34.0078L107.535 25.6627L116 0L124.465 25.6627L150 34.0078L124.465 42.3373L116 68L107.535 42.3373L82 34.0078Z" fill="#1F3060"/>
<path d="M82 116.008L107.535 107.663L116 82L124.465 107.663L150 116.008L124.465 124.337L116 150L107.535 124.337L82 116.008Z" fill="#96A6F1"/>
<path d="M0 116.008L25.5351 107.663L34 82L42.4649 107.663L68 116.008L42.4649 124.337L34 150L25.5351 124.337L0 116.008Z" fill="#1F3060"/>
<path d="M82 198.008L107.535 189.663L116 164L124.465 189.663L150 198.008L124.465 206.337L116 232L107.535 206.337L82 198.008Z" fill="#1F3060"/>
</svg>
